<?xml version="1.0" encoding="UTF-8"?>
<svg width="400" height="400" viewBox="0 0 400 400" fill="none" xmlns="http://www.w3.org/2000/svg">
  <defs>
    <linearGradient id="primaryGradient" x1="0%" y1="0%" x2="100%" y2="100%">
      <stop offset="0%" style="stop-color:#14b8a6;stop-opacity:1" />
      <stop offset="100%" style="stop-color:#0d9488;stop-opacity:1" />
    </linearGradient>
    
    <filter id="glow" x="-50%" y="-50%" width="200%" height="200%">
      <feGaussianBlur stdDeviation="3" result="coloredBlur"/>
      <feMerge>
        <feMergeNode in="coloredBlur"/>
        <feMergeNode in="SourceGraphic"/>
      </feMerge>
    </filter>
    
    <filter id="shadow" x="-20%" y="-20%" width="140%" height="140%">
      <feDropShadow dx="0" dy="4" stdDeviation="8" flood-color="#000" flood-opacity="0.3"/>
    </filter>
  </defs>
  
  <style>
    @keyframes rotate {
      from { transform: rotate(0deg); }
      to { transform: rotate(360deg); }
    }
    @keyframes pulse {
      0%, 100% { opacity: 0.4; transform: scale(1); }
      50% { opacity: 0.7; transform: scale(1.02); }
    }
    @keyframes nodePulse {
      0%, 100% { opacity: 0.9; r: 6; }
      50% { opacity: 1; r: 7; }
    }
    @keyframes statusBlink {
      0%, 100% { opacity: 1; }
      50% { opacity: 0.5; }
    }
    @keyframes dataFlow {
      0% { stroke-dashoffset: 24; }
      100% { stroke-dashoffset: 0; }
    }
    .rotating-ring {
      transform-origin: 200px 200px;
      animation: rotate 60s linear infinite;
    }
    .pulsing-hex {
      transform-origin: 200px 200px;
      animation: pulse 3s ease-in-out infinite;
    }
    .inner-node {
      animation: nodePulse 2s ease-in-out infinite;
    }
    .status-live {
      animation: statusBlink 2s ease-in-out infinite;
    }
    .status-progress {
      animation: statusBlink 1s ease-in-out infinite;
    }
    .data-line {
      animation: dataFlow 2s linear infinite;
    }
  </style>
  
  <!-- Background circle -->
  <circle cx="200" cy="200" r="180" fill="#0a1628"/>
  
  <!-- Outer ring - rotating -->
  <circle class="rotating-ring" cx="200" cy="200" r="140" fill="none" stroke="url(#primaryGradient)" stroke-width="3" stroke-dasharray="12 6" opacity="0.4"/>
  
  <!-- Inner geometric hexagon shape - pulsing -->
  <path class="pulsing-hex" d="M200 80 L290 130 L290 230 L200 280 L110 230 L110 130 Z" 
        fill="none" 
        stroke="url(#primaryGradient)" 
        stroke-width="2.5" 
        opacity="0.6"/>
  
  <!-- Network connection lines with data flow animation -->
  <g stroke="#14b8a6" stroke-width="2" opacity="0.5">
    <line class="data-line" x1="130" y1="200" x2="170" y2="200" stroke-dasharray="4 4"/>
    <line class="data-line" x1="230" y1="200" x2="270" y2="200" stroke-dasharray="4 4" style="animation-delay: 0.3s"/>
    <line class="data-line" x1="200" y1="130" x2="200" y2="170" stroke-dasharray="4 4" style="animation-delay: 0.6s"/>
    <line class="data-line" x1="200" y1="230" x2="200" y2="270" stroke-dasharray="4 4" style="animation-delay: 0.9s"/>
    <line x1="145" y1="145" x2="170" y2="170"/>
    <line x1="255" y1="145" x2="230" y2="170"/>
    <line x1="145" y1="255" x2="170" y2="230"/>
    <line x1="255" y1="255" x2="230" y2="230"/>
  </g>
  
  <!-- Central hub -->
  <circle cx="200" cy="200" r="45" fill="url(#primaryGradient)" filter="url(#shadow)"/>
  <circle cx="200" cy="200" r="35" fill="none" stroke="#ffffff" stroke-width="2" opacity="0.3"/>
  
  <!-- Central icon -->
  <g fill="#ffffff" filter="url(#glow)">
    <path d="M188 180 L220 200 L188 220 L188 210 L205 200 L188 190 Z" fill="#ffffff"/>
    <path d="M170 200 L178 200 L182 188 L186 212 L190 200 L195 200" 
          fill="none" 
          stroke="#ffffff" 
          stroke-width="2.5" 
          stroke-linecap="round"
          stroke-linejoin="round"
          opacity="0.9"/>
  </g>
  
  <!-- Satellite nodes with pulsing inner circles -->
  <circle cx="200" cy="110" r="12" fill="url(#primaryGradient)"/>
  <circle class="inner-node" cx="200" cy="110" r="6" fill="#ffffff" opacity="0.9"/>
  
  <circle cx="270" cy="150" r="10" fill="url(#primaryGradient)"/>
  <circle class="inner-node" cx="270" cy="150" r="5" fill="#ffffff" opacity="0.9" style="animation-delay: 0.2s"/>
  
  <circle cx="270" cy="250" r="12" fill="url(#primaryGradient)"/>
  <circle class="inner-node" cx="270" cy="250" r="6" fill="#ffffff" opacity="0.9" style="animation-delay: 0.4s"/>
  
  <circle cx="200" cy="290" r="10" fill="url(#primaryGradient)"/>
  <circle class="inner-node" cx="200" cy="290" r="5" fill="#ffffff" opacity="0.9" style="animation-delay: 0.6s"/>
  
  <circle cx="130" cy="250" r="12" fill="url(#primaryGradient)"/>
  <circle class="inner-node" cx="130" cy="250" r="6" fill="#ffffff" opacity="0.9" style="animation-delay: 0.8s"/>
  
  <circle cx="130" cy="150" r="10" fill="url(#primaryGradient)"/>
  <circle class="inner-node" cx="130" cy="150" r="5" fill="#ffffff" opacity="0.9" style="animation-delay: 1s"/>
  
  <!-- Status indicator dots with appropriate animations -->
  <circle class="status-live" cx="212" cy="102" r="4" fill="#22c55e"/>
  <circle class="status-progress" cx="282" cy="242" r="4" fill="#f59e0b"/>
  <circle class="status-live" cx="142" cy="242" r="4" fill="#22c55e"/>
</svg>
